<svg xmlns="http://www.w3.org/2000/svg" width="64" height="56" viewBox="0 0 64 56" fill="none"><path d="M31.75 56C47.214 56 59.75 43.464 59.75 28C59.75 12.536 47.214 0 31.75 0C16.286 0 3.75 12.536 3.75 28C3.75 43.464 16.286 56 31.75 56Z" fill="#CCEFDC"></path><path d="M57.9092 20.1252H5.9759L0 27.2059C1.03133 27.2523 2.02001 27.6309 2.8185 28.2853C3.55671 28.8105 4.13243 29.5326 4.48 30.3692C4.48 30.3692 13.8035 28.2843 20.9212 33.0136C21.1185 33.0276 21.3199 33.0398 21.519 33.053C21.6917 33.0644 21.8635 33.0763 22.0375 33.0872C25.076 31.7465 28.361 31.0548 31.6821 31.0564C35.0033 31.0579 38.2876 31.7527 41.3249 33.0962C41.5458 33.0827 41.7628 33.0675 41.9815 33.053C42.1806 33.0398 42.382 33.0276 42.5793 33.0136C49.6967 28.2843 59.02 30.3692 59.02 30.3692C59.4167 29.4902 60.0413 28.7334 60.829 28.1771C61.6168 27.6209 62.539 27.2856 63.5 27.2059L57.9092 20.1252Z" fill="#00B14F"></path><path d="M18.2178 23.1462C21.082 13.452 26.0681 7.02118 31.75 7.02118C25.0871 7.02302 18.5625 8.9225 12.9397 12.4973C7.31695 16.0722 2.82864 21.1745 0 27.2072C0 27.2072 4.7709 21.5 18.2178 23.1462Z" fill="#006A2F"></path><path d="M45.2822 23.1462C42.418 13.452 37.4319 7.02118 31.75 7.02118C38.4129 7.02302 44.9375 8.9225 50.5603 12.4973C56.1831 16.0722 60.6714 21.1745 63.5 27.2072C63.5 27.2072 58.7291 21.5 45.2822 23.1462Z" fill="#33C172"></path><path d="M45.282 23.1462C42.4179 13.4521 37.432 7.02118 31.75 7.02118C26.068 7.02118 21.082 13.4521 18.2178 23.1462C18.2178 23.1462 29.4953 17.1142 45.282 23.1462Z" fill="#008E3F"></path><path d="M31.2623 7.89003V6.24002C31.2623 6.11076 31.3137 5.98679 31.4051 5.89538C31.4965 5.80398 31.6205 5.75262 31.7497 5.75262C31.879 5.75262 32.003 5.80398 32.0944 5.89538C32.1858 5.98679 32.2371 6.11076 32.2371 6.24002V7.89003" fill="#008E3F"></path><path d="M47.1305 47.9C49.1882 47.2374 51.7563 45.7971 52.3357 43.5336C52.9101 41.29 51.1724 39.8736 49.7325 38.5002C48.8779 37.773 48.3115 36.7642 48.1356 35.6559C47.9276 33.9696 47.9905 32.4281 47.1866 30.865C46.6024 29.5513 45.5891 28.4752 44.3128 27.8132C43.0366 27.1513 41.5732 26.9427 40.1628 27.2218C38.9095 27.5716 37.7826 28.2729 36.9152 29.2428C36.0478 30.2127 35.4763 31.4107 35.2681 32.6951C34.7817 34.9388 34.6786 37.4585 32.6267 38.9904C30.5831 40.516 29.0662 42.4104 28.9322 45.0779C28.8684 45.8202 28.998 46.5664 29.3085 47.2436C30.8306 50.2499 36.064 49.7236 38.7957 49.4524C41.4739 49.176 44.1266 48.6925 46.73 48.0065C46.8633 47.9719 47 47.9424 47.1305 47.9Z" fill="#41342E"></path><path d="M31.75 56C27.2732 56.0024 22.8613 54.9296 18.8854 52.872C14.9095 50.8144 11.4859 47.8321 8.90247 44.176C10.3243 42.6459 12.0497 41.4292 13.9683 40.6036C15.887 39.7781 17.9568 39.3618 20.0455 39.3815C24.9585 39.3108 29.7836 40.6882 33.9189 43.3421L31.75 56Z" fill="#66D095"></path><path d="M52.7554 46.5042C51.561 45.0914 50.089 43.9391 48.4307 43.119C46.7724 42.2988 44.9632 41.8283 43.1154 41.7365C39.6429 41.7123 36.1988 42.3624 32.974 43.6506C30.9781 41.6852 28.417 40.394 25.65 39.958C25.5465 40.4443 25.495 40.9402 25.4966 41.4374C25.4285 42.4184 25.0543 43.3533 24.4266 44.1103C23.9559 44.6622 23.6092 45.3088 23.4101 46.0063C23.2109 46.7038 23.164 47.436 23.2723 48.1532C23.4762 49.162 24.0355 50.0641 24.8485 50.6952C24.1282 51.9416 23.5499 53.2648 23.1242 54.64C25.8457 55.5185 28.6857 55.9745 31.5454 55.992L31.5481 55.995C31.6157 55.9955 31.6823 56.0002 31.75 56.0002C32.2073 56.0002 32.6616 55.9873 33.1135 55.9657L33.115 55.9627C36.8557 55.7836 40.5221 54.8539 43.8962 53.229C47.2703 51.6041 50.2831 49.3171 52.7554 46.5042Z" fill="#33C172"></path><path d="M27.1346 41.8651C27.4368 41.4556 27.6108 40.9658 27.6346 40.4575C25.9337 39.967 24.1886 39.6449 22.4246 39.4958L17.8315 39.5515C17.1304 39.6476 16.4365 39.791 15.7546 39.9807L16.7322 40.7372C17.076 41.0097 20.1648 43.3993 22.7967 43.3993C24.9539 43.3993 26.3728 42.8974 27.1346 41.8651Z" fill="#00B14F"></path><path d="M45.78 42.0952C44.9109 41.8622 44.0154 41.7416 43.1155 41.7365C41.0383 41.7355 38.9672 41.9608 36.9388 42.4085C37.6625 43.2343 38.5789 43.8686 39.6066 44.2552C40.6343 44.6418 41.7415 44.7687 42.83 44.6246C45.1345 44.4229 45.7536 43.2571 45.78 42.0952Z" fill="#00B14F"></path><path d="M22.797 41.8988C20.6108 41.8988 17.6649 39.5623 17.6649 39.5623L17.693 32.48L25.3953 33.8874C25.3953 33.8874 25.227 38.1758 26.1235 40.0755C26.1235 40.0754 26.6855 41.8988 22.797 41.8988Z" fill="#F9D2AA"></path><path d="M25.691 38.6257C24.7621 39.1841 23.6529 39.3607 22.5964 39.1185C21.1935 38.7816 19.9595 37.9489 19.122 36.774C19.1096 36.764 19.0935 36.7548 19.0815 36.7446C19.3493 37.6494 19.8855 38.4515 20.6192 39.0448C21.3528 39.6382 22.2493 39.9948 23.19 40.0674C23.2754 41.1351 23.3625 41.8847 23.3625 41.8847C26.6286 41.7929 26.1237 40.0754 26.1237 40.0754C25.9219 39.6113 25.7766 39.1246 25.691 38.6257Z" fill="#E5A677"></path><path d="M22.5964 24.5149C19.5242 24.5149 17.0336 26.6349 17.0336 30.7899C17.0336 31.0889 17.0519 31.3844 17.0798 31.6777C16.5666 31.8759 16.499 32.6731 16.6798 33.5456C16.8825 34.5267 17.431 34.8346 17.9157 34.798C18.9574 37.104 20.7794 38.808 22.5969 39.118C27.4412 39.9458 28.1597 34.9446 28.1597 30.7894C28.1597 26.6342 25.6687 24.5149 22.5964 24.5149Z" fill="#F9D2AA"></path><path d="M22.5965 39.1185C27.4408 39.9463 28.1593 34.9451 28.1593 30.7899C28.1593 26.6347 25.6687 24.515 22.5965 24.515C22.5965 24.515 26.6436 26.385 26.6436 32.5791C26.6436 38.7732 22.5965 39.1185 22.5965 39.1185Z" fill="#F9BA8A"></path><path d="M43.72 35.6631C43.4288 37.7166 43.6017 39.8092 44.2262 41.7869C44.2262 41.7869 44.9575 43.0829 42.503 43.315C42.5027 43.315 41.0916 32.8968 43.72 35.6631Z" fill="#E5A677"></path><path d="M40.1949 39.5686C41.3584 40.0116 42.6181 40.1407 43.8473 39.9429L43.2358 41.3729C42.6054 41.4182 41.9762 41.2696 41.4327 40.9471C40.8891 40.6246 40.4572 40.1436 40.1949 39.5686Z" fill="#E5A677"></path><path d="M42.2565 28.5409C44.8287 28.5409 46.4775 30.2909 46.4775 33.7209C46.4775 37.1509 44.8186 40.5957 42.2565 40.5957C43.0004 40.1182 43.6392 39.494 44.1336 38.7612C44.628 38.0283 44.9677 37.2023 45.1319 36.3337C45.6012 33.4712 45.1675 30.6537 42.8325 29.7637L42.2565 28.5409Z" fill="#F9BA8A"></path><path d="M28.5376 24.92C28.215 25.0859 27.8475 25.1434 27.4896 25.0838C27.4896 25.0838 17.4974 22.4838 16.4363 28.3384C16.1925 29.7904 16.2454 31.2767 16.5919 32.7077C16.5982 32.1946 16.7435 31.7929 17.0958 31.6687C17.6258 31.4822 18.2974 32.0199 18.5969 32.8699C18.6713 33.08 18.717 33.2992 18.7329 33.5216H19.3572C19.1745 31.968 19.4705 30.3957 20.2056 29.0149C29.9064 31.2381 29.123 25.243 28.5376 24.92Z" fill="#41342E"></path><path d="M44.2259 41.7869C43.6015 39.8091 43.4285 37.7165 43.7197 35.6631H38.3406V42.1341C39.5372 43.0226 41.0177 43.4427 42.5027 43.315C44.9572 43.0829 44.2259 41.7869 44.2259 41.7869Z" fill="#F9D2AA"></path><path d="M42.2565 28.5409C39.6842 28.5409 38.0354 30.2909 38.0354 33.7209V33.7247C37.9219 33.6954 37.8024 33.6996 37.6912 33.7366C37.2258 33.9006 37.1648 34.6103 37.3251 35.3859C37.512 36.2904 38.0337 36.5472 38.4737 36.4826C39.1972 38.784 40.7186 40.5957 42.2564 40.5957C44.8184 40.5957 46.4774 37.1508 46.4774 33.7209C46.4774 30.291 44.8287 28.5409 42.2565 28.5409Z" fill="#F9D2AA"></path><path d="M42.628 40.5707C42.8414 40.5201 44.558 39.9607 44.9465 35.294C45.3614 30.3153 42.628 28.6213 42.628 28.6213C44.8729 29 46.4775 30.7113 46.4775 33.7205C46.4775 36.364 45.4923 39.0205 43.8668 40.0959C43.4976 40.3505 43.0728 40.5133 42.628 40.5707Z" fill="#F9BA8A"></path><path d="M42.2565 27.745C36.9849 27.745 37.8436 32.9113 38.0105 33.7212C38.2522 33.804 38.4698 33.9449 38.6442 34.1316C38.8186 34.3183 38.9444 34.545 39.0105 34.7918C39.0311 34.8666 39.0475 34.9424 39.0598 35.019C42.6188 34.4522 44.1466 30.4554 44.1466 30.4554C45.211 30.9207 46.0487 31.7874 46.4776 32.867C46.4776 32.867 46.9064 27.745 42.2565 27.745Z" fill="#41342E"></path><path d="M37.64 41.4377C37.64 44.4407 40.3875 45.6104 39.9 47.8318C39.7736 48.4516 39.4512 49.0142 38.9803 49.4365C38.5094 49.8587 37.9152 50.1183 37.2854 50.1766H27.3507C26.7209 50.1183 26.1266 49.8587 25.6557 49.4365C25.1849 49.0142 24.8624 48.4516 24.7361 47.8318C24.2486 45.6104 26.9961 44.4407 26.9961 41.4377C26.9961 41.4377 27.1061 36.0471 32.3179 36.0048C37.5297 35.9625 37.64 41.4377 37.64 41.4377Z" fill="#41342E"></path><path d="M31.75 56C34.2848 55.9996 36.8079 55.6551 39.25 54.9759C38.6679 51.1934 37.2036 47.3112 33.6347 47.3112H30.0625C30.0625 47.3112 26.4747 49.0841 24.5664 55.0656C26.9104 55.6865 29.3251 56.0006 31.75 56Z" fill="#F9BA8A"></path><path d="M33.6343 47.3112H30.0625C28.8445 48.0363 27.7974 49.0157 26.9925 50.1825C28.2296 50.9406 29.5425 51.5674 30.9099 52.0525C33.4708 52.9623 36.1884 53.3477 38.9013 53.1859C38.15 50.0609 36.6372 47.3112 33.6343 47.3112Z" fill="#F39D56"></path><path d="M29.2111 47.8612C29.4774 47.6522 29.7624 47.4681 30.0625 47.3112H33.6343C34.2818 47.3028 34.9224 47.4449 35.5057 47.7263C35.5299 48.019 35.4699 48.3125 35.3328 48.5722C35.0964 48.9039 34.7771 49.1678 34.4069 49.3376C34.0367 49.5074 33.6284 49.5772 33.2228 49.5399C33.2228 49.5399 30.4588 49.4877 29.2111 47.8612Z" fill="#F38522"></path><path d="M34.5285 43.1028H30.2691L30.0625 47.3572C30.0596 47.4172 30.5845 47.671 30.6564 47.7112C30.8895 47.8412 31.1272 47.9635 31.3708 48.0729C31.8543 48.3015 32.3705 48.4533 32.9008 48.5229C33.6753 48.6082 35.0034 48.3949 34.3208 47.3492C33.6364 46.3 34.5285 43.1028 34.5285 43.1028Z" fill="#F9D2AA"></path><path d="M34.0806 46.4852C33.0111 46.677 31.9091 46.5571 30.9059 46.1398C31.3733 46.6715 32.0186 47.0145 32.7208 47.1047C32.7969 47.9147 32.9008 48.5226 32.9008 48.5226C33.6753 48.6079 35.0034 48.3946 34.3208 47.3489C34.1734 47.0841 34.0911 46.788 34.0806 46.4852Z" fill="#E5A677"></path><path d="M36.94 42.4337C36.94 39.7719 35.354 38.4137 32.88 38.4137C30.6179 38.4137 29.1137 39.5619 28.87 41.7908C28.7412 41.7208 28.5903 41.7031 28.4488 41.7416C28.0503 41.8816 27.9981 42.4899 28.1353 43.1541C28.2871 43.8884 28.6961 44.1213 29.0593 44.0968C29.4581 45.248 30.4906 46.5735 33.1362 46.5735C37.3661 46.5739 36.94 42.4337 36.94 42.4337Z" fill="#F9D2AA"></path><path d="M33.1361 46.5739C37.3661 46.5739 36.9402 42.4339 36.9402 42.4339C36.9402 39.7721 35.3542 38.4139 32.8802 38.4139C32.8802 38.4139 35.8041 40.0101 35.8041 42.4939C35.8038 46.1674 33.1361 46.5739 33.1361 46.5739Z" fill="#F9BA8A"></path><path d="M33.1222 37.24C33.6659 37.2106 34.2093 37.303 34.7127 37.5103C35.2162 37.7177 35.667 38.0348 36.0322 38.4386C36.7541 39.3011 37.1471 40.3913 37.1416 41.516C36.8942 40.6496 36.3495 39.8982 35.603 39.3935C35.603 39.3935 32.7506 42.2177 29.8759 42.5451C29.7906 42.734 29.762 42.9436 29.7934 43.1485C29.7934 43.1485 28.6954 42.5371 28.6634 40.4307C28.6314 38.3243 30.8145 37.24 33.1222 37.24Z" fill="#41342E"></path><path d="M43.8668 40.0959C43.3921 40.4196 42.8313 40.5936 42.2568 40.5953C41.4826 40.5383 40.7625 40.1768 40.2542 39.59L40.1949 39.5684C40.4114 39.9799 40.7075 40.3443 41.0658 40.6405C41.4242 40.9368 41.8378 41.159 42.2827 41.2942C42.3864 42.4542 42.5027 43.3149 42.5027 43.3149C44.9572 43.0828 44.2259 41.7868 44.2259 41.7868C44.0656 41.1677 43.958 40.623 43.8668 40.0959Z" fill="#E5A677"></path></svg>