<svg xmlns="http://www.w3.org/2000/svg" width="56" height="56" viewBox="0 0 56 56" fill="none"><path d="M56 28C56 33.7 54.3 39 51.4 43.4C51.1 43.8 50.9 44.2 50.6 44.6C45.4 51.5 37.2 56 28 56C18.8 56 10.6 51.5 5.5 44.7C5.2 44.3 4.9 43.9 4.7 43.5C2.5 40.2 1 36.6 0.4 32.7C0.1 31.2 0 29.6 0 28C0 26.7 0.1 25.5 0.2 24.2C2.1 10.6 13.8 0 28 0C43.5 0 56 12.5 56 28Z" fill="#CCEFDC"></path><path d="M28 45.2999C42.1937 45.2999 53.7 44.7179 53.7 44C53.7 43.282 42.1937 42.7 28 42.7C13.8063 42.7 2.29999 43.282 2.29999 44C2.29999 44.7179 13.8063 45.2999 28 45.2999Z" fill="#99E0B9"></path><path fill-rule="evenodd" clip-rule="evenodd" d="M46 43.4H10C8.20001 43.4 6.80001 42 6.80001 40.2L6.70001 17.1C6.70001 15.3 8.10001 13.9 9.90001 13.9H45.9C47.7 13.9 49.1 15.3 49.1 17.1L49.2 40.2C49.2 42 47.8 43.4 46 43.4Z" fill="white"></path><path d="M31.7 38.9H24.6V43.5H31.7V38.9Z" fill="#F18275"></path><path fill-rule="evenodd" clip-rule="evenodd" d="M30.4 14.7H46C47.4 14.7 48.5 15.8 48.5 17.2V40.5999C48.5 42.1999 47.2 43.5 45.6 43.5H30.4C28.8 43.5 27.5 42.1999 27.5 40.5999V17.6C27.5 16 28.8 14.7 30.4 14.7Z" fill="#FDF4D9"></path><path d="M42.5905 14.7892L35.1906 14.8112L35.2101 21.4112L42.6101 21.3892L42.5905 14.7892Z" fill="#F39D56"></path><path d="M45.3 31.8H32.6V38.9001H45.3V31.8Z" fill="white"></path><path d="M43.4 33.5H34.4V37.3H43.4V33.5Z" fill="#F39D56"></path><path fill-rule="evenodd" clip-rule="evenodd" d="M9.60001 14.8H24.6C26.2 14.8 27.5 16.1 27.5 17.7V40.7001C27.5 42.3001 26.2 43.6 24.6 43.6H9.60001C8.00001 43.6 6.70001 42.3001 6.70001 40.7001V17.7C6.70001 16.1 8.00001 14.8 9.60001 14.8Z" fill="#F39D56"></path><path fill-rule="evenodd" clip-rule="evenodd" d="M25.5 31.9L18.4 30L16.5 30.1V20.4L8.60001 27.2L6.70001 27V30.6V40.6C6.70001 42.2 8.00001 43.5 9.60001 43.5H24.6C24.9 43.5 25.2 43.4 25.5 43.3V31.9Z" fill="#F38522"></path><path fill-rule="evenodd" clip-rule="evenodd" d="M25.6 31.9001C25.6 31.9001 25.6 32.0001 25.5 32.0001C24.6 33.3001 17 30.5001 16.8 31.8001C16.5 33.1001 25.9 35.6001 25.2 36.9001C24.5 38.3001 15.8 33.5001 15.5 34.2001C15.2 34.9001 23.4 40.0001 22.6 40.8001C21.8 41.7001 14 35.5001 13.5 36.2001C13.1 36.8001 16.3 41.5001 16.7 42.8001C16.8 43.1001 16.7 43.2001 16.2 43.0001C16.1 42.9001 16.1 42.9001 16 42.8001C14.7 41.8001 13.7 40.6001 12.8 39.3001C11.9 38.0001 10.7 36.8001 9.3 35.9001C8.5 35.4001 7.8 34.9001 7.3 34.4001L6.8 34.3001L0.5 32.7001C0.1 31.2001 0 29.6001 0 28.0001C0 26.7001 0.1 25.5001 0.2 24.2001C1.9 25.3001 4 26.1001 5.7 26.5001C6 26.4001 6.3 26.2001 6.7 26.1001C6.9 26.0001 7.1 26.0001 7.4 25.9001C14.8 22.3001 14.8 18.3001 16 19.3001C16.5 19.7001 16.7 20.1001 16.6 20.6001C16.5 20.9001 16.4 21.3001 16.2 21.7001C15.6 22.9001 14.5 23.6001 13.9 24.6001C13.3 25.6001 14 26.6001 14.7 27.4001C15.2 27.9001 15.9 28.3001 16.6 28.6001C20.1 30.3001 26 30.5001 25.6 31.9001Z" fill="white"></path></svg>