<svg xmlns="http://www.w3.org/2000/svg" width="57" height="56" viewBox="0 0 57 56" fill="none"><path d="M28 56C43.464 56 56 43.464 56 28C56 12.536 43.464 0 28 0C12.536 0 0 12.536 0 28C0 43.464 12.536 56 28 56Z" fill="#CCEFDC"></path><path d="M28 45.2999C42.1937 45.2999 53.7 44.7179 53.7 44C53.7 43.282 42.1937 42.7 28 42.7C13.8063 42.7 2.29999 43.282 2.29999 44C2.29999 44.7179 13.8063 45.2999 28 45.2999Z" fill="#99E0B9"></path><path fill-rule="evenodd" clip-rule="evenodd" d="M42 42.7999H14.7C15 38.9999 15.3 35.2999 15.8 31.9C16.5 27.4999 20.2 24.2 24.5 24.2H32.2C36.6 24.2 40.3 27.4999 40.9 31.9C41.6 35.2 41.8 38.9 42 42.7999Z" fill="#FDF4D9"></path><path fill-rule="evenodd" clip-rule="evenodd" d="M41.1 31.9C40.4 27.4999 36.7 24.2 32.4 24.2H24.7C22.9 24.2 21.2 24.8 19.8 25.7C20.7 27.6 22.5 29.4 25.9 31.2C31.7 34.3 37.7 34.8999 41.4 33.0999C41.2 32.7999 41.1 32.2999 41.1 31.9Z" fill="#F9D468"></path><path fill-rule="evenodd" clip-rule="evenodd" d="M11.5 38.4C10.8 36.7 12.6 34.3 15.6 33C18.6 31.7 21.5 32.1 22.2 33.8C22.9 35.5 21.1 37.9 18.1 39.2C15.2 40.5 12.2 40.1 11.5 38.4Z" fill="#00B14F"></path><path fill-rule="evenodd" clip-rule="evenodd" d="M14 37.3999C13.5 36.1999 14.7 34.4999 16.7 33.5999C18.7 32.6999 20.7 33.0999 21.2 34.2999C21.7 35.4999 20.5 37.1999 18.5 38.0999C16.6 38.8999 14.5 38.5999 14 37.3999Z" fill="#CCEFDC"></path><path d="M38.4 40.9C42.4317 40.9 45.7 39.512 45.7 37.7999C45.7 36.0879 42.4317 34.7 38.4 34.7C34.3683 34.7 31.1 36.0879 31.1 37.7999C31.1 39.512 34.3683 40.9 38.4 40.9Z" fill="#F18275"></path><path fill-rule="evenodd" clip-rule="evenodd" d="M0.800024 38H28.6V43.9C28.6 43.9 12.7 43 0.700024 38.9C0.500024 38.8 0.400024 38.6 0.400024 38.4C0.400024 38.1 0.600024 38 0.800024 38Z" fill="#006A2F"></path><path fill-rule="evenodd" clip-rule="evenodd" d="M55.9 38H28.1V43.9C28.1 43.9 44 43 56 38.9C56.2 38.8 56.3 38.6 56.3 38.4C56.3 38.1 56.1 38 55.9 38Z" fill="#006A2F"></path><path fill-rule="evenodd" clip-rule="evenodd" d="M40.3 44.7999H16.4C16.1 44.7999 15.8 44.5999 15.7 44.2999L14.5 42.2H42.4L41.2 44.2999C40.9 44.5999 40.6 44.7999 40.3 44.7999Z" fill="#008E3F"></path><path fill-rule="evenodd" clip-rule="evenodd" d="M44.1 25.8C42.5 30.5 34.6 32 26.7 29.1C18.7 26.2 18.8 22 18.8 16.9C18.7 8.7 24.7 8.9 32.7 11.9C40.5 14.8 45.7 21.1 44.1 25.8Z" fill="white"></path><path d="M34.9145 21.2549C35.9969 18.6546 34.2291 15.4454 30.9659 14.0871C27.7027 12.7287 24.1799 13.7355 23.0975 16.3359C22.0151 18.9362 23.7829 22.1454 27.0461 23.5037C30.3092 24.8621 33.832 23.8552 34.9145 21.2549Z" fill="#FADF8E"></path><path fill-rule="evenodd" clip-rule="evenodd" d="M27.8 22.0999C24.5 20.8999 22.5 17.9999 23.3 15.7999C24.1 13.5999 27.4 12.6999 30.7 13.9999C34 15.1999 36 18.0999 35.2 20.2999C34.4 22.5999 31.1 23.3999 27.8 22.0999Z" fill="#F39D56"></path><path fill-rule="evenodd" clip-rule="evenodd" d="M29.3 17.9C27.5 17.2 26.2 15.9 26.6 14.9C26.9 13.9 28.7 13.7 30.6 14.4C32.4 15.1 33.7 16.4 33.3 17.4C32.9 18.4 31.2 18.6 29.3 17.9Z" fill="#F7C942"></path><path fill-rule="evenodd" clip-rule="evenodd" d="M12.3 30.4C10.7 30.2 9.80003 27.7 10.2 24.9C10.6 22.1 12.2 19.9 13.7 20.2C15.3 20.4 16.2 22.9 15.8 25.7C15.5 28.5 13.9 30.6 12.3 30.4Z" fill="#00B14F"></path><path fill-rule="evenodd" clip-rule="evenodd" d="M12.7 27.8C11.6 27.6 10.9 26 11.2 24.2C11.4 22.4 12.5 21 13.6 21.2C14.7 21.4 15.4 23 15.1 24.8C14.9 26.6 13.8 28 12.7 27.8Z" fill="#CCEFDC"></path></svg>