<svg xmlns="http://www.w3.org/2000/svg" width="62" height="56" viewBox="0 0 62 56" fill="none"><path d="M29.3 56C44.764 56 57.3 43.464 57.3 28C57.3 12.536 44.764 0 29.3 0C13.836 0 1.29999 12.536 1.29999 28C1.29999 43.464 13.836 56 29.3 56Z" fill="#CCEFDC"></path><path d="M30.7 45.2999C47.6551 45.2999 61.4 44.7179 61.4 44C61.4 43.282 47.6551 42.7 30.7 42.7C13.7449 42.7 0 43.282 0 44C0 44.7179 13.7449 45.2999 30.7 45.2999Z" fill="#99E0B9"></path><path fill-rule="evenodd" clip-rule="evenodd" d="M10.8 38.7999H54.4C54.4 40.2999 53.2 41.4999 51.8 41.4999H10.8V38.7999Z" fill="#4B4B4B"></path><path fill-rule="evenodd" clip-rule="evenodd" d="M49.8 42.3999C49 41.3999 48.6 39.8999 48.6 38.2999C48.6 35.2999 50.2 32.7999 52.1 32.7999C54 32.7999 55.6 35.1999 55.6 38.2999C55.6 41.3999 54 43.7999 52.1 43.7999H48.8V42.4999H49.8V42.3999Z" fill="#4B4B4B"></path><path d="M48.8 43.7C50.733 43.7 52.3 41.2375 52.3 38.2C52.3 35.1624 50.733 32.7 48.8 32.7C46.867 32.7 45.3 35.1624 45.3 38.2C45.3 41.2375 46.867 43.7 48.8 43.7Z" fill="#4B4B4B"></path><path fill-rule="evenodd" clip-rule="evenodd" d="M60.6 32.9L59 29.6C58.7 29 58.2 28.5999 57.6 28.2999L50.6 25.4C46.4 21.0999 40.7 18.7 34.7 18.7H15.5C20.1 18.7 24.4 21.2 26.7 25.2L26.9 25.5L33.9 28.4C34.5 28.7 35 29.1 35.2 29.7L36.8 33C37.2 33.8 37.2 34.6 36.8 35.4L35.5 38C35.3 38.2999 35.3 38.7 35.5 39C35.7 39.2999 36 39.5 36.3 39.5H57C58 39.5 58.9 38.9 59.4 38L60.7 35.2999C61 34.5999 61 33.7 60.6 32.9Z" fill="#66D095"></path><path fill-rule="evenodd" clip-rule="evenodd" d="M59.3 30.1H35.5L36.9 32.9C37.3 33.7 37.3 34.5 36.9 35.3L35.5 38C35.4 38.2 34.4 38.7 32.5 39.5C34.9 39.5 36.1 39.5 36.4 39.5H57C58 39.5 58.9 38.9 59.4 38L60.7 35.3C61.1 34.5 61.1 33.7 60.7 32.9L59.3 30.1Z" fill="#00B14F"></path><path fill-rule="evenodd" clip-rule="evenodd" d="M15.2 25.4H50.7C49.1 23.8 47.3 22.4 45.3 21.4H15.2V25.4Z" fill="#00B14F"></path><path fill-rule="evenodd" clip-rule="evenodd" d="M7.40001 42.3999C6.60001 41.3999 6.20001 39.8999 6.20001 38.2999C6.20001 35.2999 7.80001 32.7999 9.70001 32.7999C11.6 32.7999 13.2 35.1999 13.2 38.2999C13.2 41.3999 11.6 43.7999 9.70001 43.7999H6.30001V42.4999H7.40001V42.3999Z" fill="#4B4B4B"></path><path fill-rule="evenodd" clip-rule="evenodd" d="M25.3 42.3999C24.5 41.3999 24.1 39.8999 24.1 38.2999C24.1 35.2999 25.7 32.7999 27.6 32.7999C29.5 32.7999 31.1 35.1999 31.1 38.2999C31.1 41.3999 29.5 43.7999 27.6 43.7999H24.3V42.4999H25.3V42.3999Z" fill="#4B4B4B"></path><path fill-rule="evenodd" clip-rule="evenodd" d="M36.9 32.9L35.3 29.6C35 29 34.5 28.6 34 28.3L27 25.4L26.8 25.1C24.5 21.1 20.2 18.6 15.5 18.6H14.8C10.6 18.6 6.70001 20.9 4.60001 24.5C4.30001 25 3.80001 25.5 3.20001 25.7L2.90001 25.8C1.30001 26.4 0.200012 27.9 0.200012 29.6V34.6C0.200012 36.6 1.70001 38.3 3.70001 38.6L10.8 39.5H33.2C34.2 39.5 35.1 38.9 35.6 38L36.9 35.3C37.2 34.6 37.2 33.7 36.9 32.9Z" fill="#008E3F"></path><path d="M6.10004 43.7C8.03303 43.7 9.60004 41.2375 9.60004 38.2C9.60004 35.1624 8.03303 32.7 6.10004 32.7C4.16704 32.7 2.60004 35.1624 2.60004 38.2C2.60004 41.2375 4.16704 43.7 6.10004 43.7Z" fill="#4B4B4B"></path><path d="M24.3 43.7C26.233 43.7 27.8 41.2375 27.8 38.2C27.8 35.1624 26.233 32.7 24.3 32.7C22.367 32.7 20.8 35.1624 20.8 38.2C20.8 41.2375 22.367 43.7 24.3 43.7Z" fill="#4B4B4B"></path><path d="M5.90002 41.0999C6.72845 41.0999 7.40002 39.8016 7.40002 38.1999C7.40002 36.5983 6.72845 35.2999 5.90002 35.2999C5.0716 35.2999 4.40002 36.5983 4.40002 38.1999C4.40002 39.8016 5.0716 41.0999 5.90002 41.0999Z" fill="white"></path><path d="M24.1 41.0999C24.9285 41.0999 25.6 39.8016 25.6 38.1999C25.6 36.5983 24.9285 35.2999 24.1 35.2999C23.2716 35.2999 22.6 36.5983 22.6 38.1999C22.6 39.8016 23.2716 41.0999 24.1 41.0999Z" fill="white"></path><path fill-rule="evenodd" clip-rule="evenodd" d="M3.10001 31.2L4.10001 28.1H0.500012C0.300012 28.6 0.200012 29.1 0.200012 29.7V32.2H1.90001C2.40001 32.1 2.90001 31.7 3.10001 31.2Z" fill="#EE6352"></path><path fill-rule="evenodd" clip-rule="evenodd" d="M8.00002 25.3999H26.9L26.7 25.0999C25.8 23.5999 24.7 22.3999 23.4 21.2999H11.5C10.2 21.2999 8.90002 21.9999 8.20002 23.0999L7.40002 24.2999C7.30002 24.4999 7.20002 24.7999 7.40002 24.9999C7.50002 25.1999 7.80002 25.3999 8.00002 25.3999Z" fill="#4B4B4B"></path><path fill-rule="evenodd" clip-rule="evenodd" d="M45.5 31.4L53.4 34.1L57.7 31.4V30.1H44.2L45.5 31.4Z" fill="#4B4B4B"></path><path fill-rule="evenodd" clip-rule="evenodd" d="M47.4 32.1L45.4 30.1H35.4L36.8 33C36.9 33.2 37 33.4 37 33.6L44.5 35L47.4 32.1Z" fill="white"></path><path fill-rule="evenodd" clip-rule="evenodd" d="M35.5 30.1H31.1L33.2 32.8L37 33.5C36.9 33.3 36.9 33.1 36.8 32.9L35.5 30.1Z" fill="#F7C942"></path><path fill-rule="evenodd" clip-rule="evenodd" d="M59.8 30.1H57.7L57 31.9L58.9 34.7L60.6 31.4L59.8 30.1Z" fill="white"></path><path fill-rule="evenodd" clip-rule="evenodd" d="M58.2 39.2L57.3 36.4C57.1 35.9 56.6 35.5 56.1 35.5H47.1C46.7 35.5 46.2 35.7 46 36.1L43.7 39.5H57C57.4 39.6 57.8 39.5 58.2 39.2Z" fill="#4B4B4B"></path></svg>