<svg xmlns="http://www.w3.org/2000/svg" width="56" height="56" viewBox="0 0 56 56" fill="none"><path d="M28 56C43.464 56 56 43.464 56 28C56 12.536 43.464 0 28 0C12.536 0 0 12.536 0 28C0 43.464 12.536 56 28 56Z" fill="#CCEFDC"></path><path d="M28 46.9001C39.0457 46.9001 48 46.318 48 45.6C48 44.8821 39.0457 44.3 28 44.3C16.9543 44.3 8 44.8821 8 45.6C8 46.318 16.9543 46.9001 28 46.9001Z" fill="#99E0B9"></path><path fill-rule="evenodd" clip-rule="evenodd" d="M17.9 19.9V19.4C17.9 18.5 19.9 12.6 19.9 11.8V10.7H18.5V11.8C18.5 12.6 18.2 13.4 17.7 14L15.3 17C14.7 17.7 14.4 18.5 14.4 19.4V19.8H17.9V19.9Z" fill="#F5A197"></path><path d="M18 27.1H14.5V31H18V27.1Z" fill="#F5A197"></path><path fill-rule="evenodd" clip-rule="evenodd" d="M28.2999 34.1L25.2 45.4H42.5999L45.5999 34.1H28.2999Z" fill="#008E3F"></path><path fill-rule="evenodd" clip-rule="evenodd" d="M27.9 35.3H45.3L45.6 34.1H28.2L27.9 35.3Z" fill="#006A2F"></path><path d="M39 43.5C38.9 43.5 38.8 43.5 38.7 43.5C38.2 43.3 37.9 42.8 38.1 42.3L39.9 37.1C40.1 36.6 40.6 36.3 41.1 36.5C41.6 36.7 41.9 37.2 41.7 37.7L39.9 42.9C39.8 43.2 39.4 43.5 39 43.5Z" fill="#006A2F"></path><path d="M34.8 43.5C34.7 43.5 34.6 43.5 34.5 43.5C34 43.3 33.7 42.8 33.9 42.3L35.7 37.1C35.9 36.6 36.4 36.3 36.9 36.5C37.4 36.7 37.7 37.2 37.5 37.7L35.7 42.9C35.5 43.2 35.1 43.5 34.8 43.5Z" fill="#006A2F"></path><path d="M30.7 38.9L29.6 42.2C29.4 42.7 29.7 43.2 30.2 43.4C30.3 43.4 30.4 43.4 30.5 43.4C30.9 43.4 31.3 43.1 31.4 42.8L33.2 37.6C33.3 37.4 33.2 37.3 33.2 37.1L30.7 38.9Z" fill="#006A2F"></path><path fill-rule="evenodd" clip-rule="evenodd" d="M10.5 34.1L13.5 45.4H25.2L28.3 34.1H10.5Z" fill="#006A2F"></path><path fill-rule="evenodd" clip-rule="evenodd" d="M27.9 35.3L28.2 34.1H10.5L10.9 35.3H27.9Z" fill="#4B4B4B"></path><path d="M46.8 30.9H28.4V34.1H46.8V30.9Z" fill="#00B14F"></path><path d="M46.8 30.9H28.4V31.2H46.8V30.9Z" fill="#4DC884"></path><path d="M28.4 30.9H9.19995V34.1H28.4V30.9Z" fill="#008E3F"></path><path d="M35.9 32.2C36.4 31.8 37.0999 31.6 37.5999 32.1C37.6999 32.2 37.7999 32.3 37.7999 32.4C37.7999 32.2 37.6999 32.1 37.5999 31.9C37.1999 31.4 36.5 31.3 35.9 31.8L25 39.5H9.19995L8.69995 39.9H25.2L35.9 32.2Z" fill="white"></path><path d="M37.5999 32C37.0999 31.6 36.4 31.7 35.9 32.1L25.2 39.8L25.9 42.2L37.5 34C37.6 33.9 37.6999 33.8 37.7999 33.8C38.1999 33.2 38.0999 32.5 37.5999 32Z" fill="#99E0B9"></path><path d="M25.2 39.9H8.69995L9.39995 42.3H25.6H25.9L25.2 39.9Z" fill="#33C172"></path><path fill-rule="evenodd" clip-rule="evenodd" d="M26.7 19.9V19.5C26.7 18.6 26.4 17.8 25.8 17.1L23.4 14.1C22.9 13.5 22.6 12.7 22.6 11.9V10.8H19.9V11.9C19.9 12.7 17.9 18.6 17.9 19.5V20H26.7V19.9Z" fill="white"></path><path fill-rule="evenodd" clip-rule="evenodd" d="M22.6 10.8V8.99998C22.6 8.49998 22.2 8.09998 21.7 8.09998H19.3C18.8 8.09998 18.4 8.49998 18.4 8.99998V10.8H22.6Z" fill="#EE6352"></path><path fill-rule="evenodd" clip-rule="evenodd" d="M19.9 8.09998H19.4C18.9 8.09998 18.5 8.49998 18.5 8.99998V10.8H19.9V8.09998Z" fill="#BE4F42"></path><path d="M26.7 19.9H14.5V27.1H26.7V19.9Z" fill="#EE6352"></path><path d="M18 19.9H14.5V27.1H18V19.9Z" fill="#BE4F42"></path><path d="M26.7 27.1H17.9V30.9H26.7V27.1Z" fill="white"></path><path d="M36.8 16.7C36.6 15.1 36.1 13.4 35.4 11.9L35.1 11.3C35 11 34.7 11 34.7 11.3L34.4 12C33.3 15.1 33 18.4 33.5 21.6C34.2 21.4 35 21.3 35.7 21.4C35.9 19.8 36.3 18.3 36.8 16.7Z" fill="#008E3F"></path><path d="M36.6 21.6L36.8 21.7L36.6 21.6Z" fill="#008E3F"></path><path d="M38.5 22.1L38.9 22.2L38.5 22.1Z" fill="#00B14F"></path><path d="M44.8 14.4999L44.3 14.7999C42.8 15.8999 41.5 17.1999 40.4 18.6999C40.1 19.8999 39.8 21.1999 39.3 22.3999C39.2 22.3999 39.1 22.2999 38.9 22.2999C39.9 22.5999 40.8 23.1999 41.5 23.8999C43.3 21.3999 44.6 18.4999 45 15.4999L45.1 14.7999C45.2 14.4999 44.9 14.2999 44.8 14.4999Z" fill="#00B14F"></path><path d="M40.2001 22.7999C40.3001 21.3999 40.4001 20 40.4001 18.7C40.1001 20 39.8 21.1999 39.3 22.4C39.6 22.4999 39.9001 22.5999 40.2001 22.7999Z" fill="#008E3F"></path><path d="M35.7 21.4C35.9 20.1 36.1999 18.7 36.5999 17.4C35.8999 18.7 35.3 20 34.7 21.4C35 21.4 35.4 21.4 35.7 21.4Z" fill="#006A2F"></path><path d="M36.5999 21.6001L38.9 22.2001C39 22.2001 39.0999 22.3001 39.2999 22.3001C40.6999 18.4001 41.3 14.3001 41 10.2001L40.9 9.30006C40.9 9.00006 40.6 8.90006 40.5 9.20006L40 9.90006C37.7 13.4001 36.3 17.3001 35.7 21.4001C36 21.5001 36.2999 21.5001 36.5999 21.6001Z" fill="#00B14F"></path><path d="M42.3 30.9L42.8 29.3C43.7 26.3 41.9 23.1 38.9 22.3L36.6 21.7C33.6 20.8 30.4 22.6 29.6 25.6L28.1 31H42.3V30.9Z" fill="#F7C942"></path><path d="M32.2 30.9L35.6 29L33.7 25.5L37.1 23.6L36 21.5C33.1 21 30.3 22.7 29.5 25.6L28 30.9H32.2Z" fill="#F38522"></path><path d="M32.2 30.9L30.3 27.5L33.7 25.6L32 22.3C30.8 23.1 29.9 24.2 29.6 25.6L28 30.9H32.2Z" fill="#C7712D"></path><path d="M39.4 22.4L39.9 22.6L39.4 22.4Z" fill="#F38522"></path><path d="M40.4 28.6C40.7 29.2 40.9 29.8 41 30.5C40.5 30.1 40.1 29.5 39.7 29C39.4 28.4 39.2 27.7 39.1 27.1C39.6 27.4 40.1 28 40.4 28.6Z" fill="#F38522"></path><path d="M37.2 27.7C36.6 28 36.1 28.5 35.7 29C37.1 28.8 38.2999 28.1 39.0999 27C38.3999 27.1 37.8 27.3 37.2 27.7Z" fill="#F38522"></path><path d="M41 30.5C41.6 30.4 42.1 30.2 42.6 30L42.8 29.3L42.9 29.1L42.6 29.3C42 29.5 41.4 30 41 30.5Z" fill="#F38522"></path><path d="M37.8 25.5C37.5 24.9 37.3 24.3 37.1 23.6C38.1 24.5 38.8 25.7 39 27C38.6 26.6 38.2 26.1 37.8 25.5Z" fill="#F38522"></path><path d="M42.4 25.1C41.1 25.3 39.9 26 39.1 27C39.8 26.9 40.4 26.7 41 26.4C41.5 26 42 25.6 42.4 25.1C42.4 25.2 42.4 25.1 42.4 25.1Z" fill="#F38522"></path><path d="M39.7 22.5C39.4 22.4 39.2 22.3 38.9 22.2L38.7 22.2999C38.1 22.5999 37.6 23.1 37.2 23.6C37.9 23.5 38.4999 23.3 39.0999 23C39.2999 22.8 39.5 22.7 39.7 22.5Z" fill="#F38522"></path><path d="M41.4 30.9C41.3 30.8 41.1 30.6 41 30.5C41 30.6 41.1 30.8 41.1 30.9H41.4Z" fill="#F38522"></path><path d="M40.6 30.9C40.7 30.8 40.9 30.6 41 30.5C40.5 30.6 40.1 30.7 39.6 30.9H40.6Z" fill="#F38522"></path><path d="M36.3 30.9H37.1C37 30.8 37 30.6 36.9 30.5C36.6 29.9 36.1 29.4 35.6 29C35.8 29.6 36 30.3 36.3 30.9Z" fill="#F38522"></path><path d="M11.6 38L9.19995 39.5H12L11.6 38Z" fill="#008E3F"></path><path d="M28.4 30.9H9.19995V31.2H28.4V30.9Z" fill="#66D095"></path></svg>