<svg xmlns="http://www.w3.org/2000/svg" width="56" height="56" viewBox="0 0 56 56" fill="none"><path d="M28 56C43.464 56 56 43.464 56 28C56 12.536 43.464 0 28 0C12.536 0 0 12.536 0 28C0 43.464 12.536 56 28 56Z" fill="#CCEFDC"></path><path d="M28 46.6C39.0457 46.6 48 46.018 48 45.3C48 44.582 39.0457 44 28 44C16.9543 44 8 44.582 8 45.3C8 46.018 16.9543 46.6 28 46.6Z" fill="#99E0B9"></path><path fill-rule="evenodd" clip-rule="evenodd" d="M30.8 11.6L32.6 22.3L38.6 18C38.9 17.8 39.3 17.9 39.5 18.2C39.6 18.3 39.6 18.4 39.6 18.5L41 34.2L13.6 29.6L20.2 15.3C20.4 15 20.7 14.8 21.1 15C21.2 15 21.3 15.1 21.4 15.2L25.5 21.1L30.8 11.6Z" fill="#EE6352"></path><path fill-rule="evenodd" clip-rule="evenodd" d="M21.7 24.9L30.4 9.60001C30.6 9.30001 31 9.20001 31.3 9.40001C31.5 9.50001 31.6 9.70001 31.6 9.90001L34.8 27.2L46.6 19.5C46.9 19.3 47.3 19.4 47.5 19.7C47.6 19.9 47.6 20.1 47.6 20.3L38.2 45.5C29.5 47.6 20.1 46 12.5 41L12 14.1C12 13.7 12.3 13.4 12.6 13.4C12.8 13.4 13 13.5 13.1 13.7L21.7 24.9Z" fill="#F38522"></path><path fill-rule="evenodd" clip-rule="evenodd" d="M21.3 33.5L28.1 27.5V27.6L26.9 34.5L21.3 33.5Z" fill="#F39D56"></path><path fill-rule="evenodd" clip-rule="evenodd" d="M26.9 34.5L25.7 41.4L21.3 33.5L26.9 34.5Z" fill="#EE6352"></path><path fill-rule="evenodd" clip-rule="evenodd" d="M47.6 19.6C47.4 19.3 47 19.2 46.7 19.4L34.9 27.2L31.7 9.79999C31.7 9.59999 31.6 9.49999 31.4 9.39999C31.4 9.39999 31.3 9.39999 31.2 9.29999L25 45.9C28.6 46.5 32.3 46.5 35.9 45.8C36.6 45.7 37.2 45.5 37.7 45.4C37.9 45.4 38.1 45.3 38.3 45.3L47.7 20.1C47.7 20 47.7 19.7 47.6 19.6Z" fill="#FDF4D9"></path><path fill-rule="evenodd" clip-rule="evenodd" d="M28.1 27.6L32.5 35.4L26.9 34.5L28.1 27.6Z" fill="white"></path><path fill-rule="evenodd" clip-rule="evenodd" d="M32.5 35.4L32.6 35.5L25.8 41.5L25.7 41.4L26.9 34.5L32.5 35.4Z" fill="#FADF8E"></path></svg>