<svg xmlns="http://www.w3.org/2000/svg" width="56" height="56" viewBox="0 0 56 56" fill="none"><path d="M28 56C43.464 56 56 43.464 56 28C56 12.536 43.464 0 28 0C12.536 0 0 12.536 0 28C0 43.464 12.536 56 28 56Z" fill="#CCEFDC"></path><path d="M28 43.5C40.4817 43.5 50.6 43.0523 50.6 42.5C50.6 41.9477 40.4817 41.5 28 41.5C15.5184 41.5 5.40002 41.9477 5.40002 42.5C5.40002 43.0523 15.5184 43.5 28 43.5Z" fill="#99E0B9"></path><path d="M13.6 15.2H38.8C40.1 15.2 41.2 16.3 41.2 17.6V20.3H13.6C12.2 20.3 11 19.2 11 17.7C11 16.3 12.2 15.2 13.6 15.2Z" fill="#006A2F"></path><path d="M14.2 16.6L35.7 8.80001C36.6 8.50001 37.6 8.90001 38 9.90001L42.9 23.3C43.2 24.2 42.8 25.2 41.8 25.6L20.3 33.4C19.4 33.7 18.4 33.3 18 32.3L13.1 18.9C12.8 17.9 13.2 16.9 14.2 16.6Z" fill="#F39D56"></path><path d="M15.5 16.1L37 8.20001C37.9 7.90001 38.9 8.30001 39.3 9.30001L44.2 22.7C44.5 23.6 44.1 24.6 43.1 25L21.6 32.8C20.7 33.1 19.7 32.7 19.3 31.7L14.4 18.3C14.2 17.4 14.6 16.4 15.5 16.1Z" fill="#FDF4D9"></path><path d="M19.7829 14.4676L17.8096 15.1858L23.8972 31.9125L25.8705 31.1943L19.7829 14.4676Z" fill="#F38522"></path><path d="M34.8 18.9L38.5 17.6C38.9 17.5 39.2 17.7 39.4 18L40.5 21.1C40.6 21.5 40.4 21.8 40.1 22L36.4 23.3C36 23.4 35.7 23.2 35.5 22.9L34.4 19.8C34.2 19.4 34.4 19.1 34.8 18.9Z" fill="#F39D56"></path><path d="M11 20.3H42.6C43.9 20.3 44.9 21.3 44.9 22.6V40.2C44.9 41.5 43.9 42.5 42.6 42.5H13.7C12.2 42.5 11.1 41.3 11.1 39.9C11 39.9 11 20.3 11 20.3Z" fill="#00B14F"></path><path d="M37.9 27.8H43.8C44.5 27.8 45.1 28.4 45.1 29.1V33.8C45.1 34.5 44.5 35.1 43.8 35.1H37.9C35.9 35.1 34.3 33.5 34.3 31.5C34.3 29.4 36 27.8 37.9 27.8Z" fill="#008E3F"></path><path d="M38.8 27.8H44.8C45.4 27.8 46 28.3 46 29V33.9C46 34.5 45.5 35.1 44.8 35.1H38.8C36.8 35.1 35.2 33.5 35.2 31.5C35.2 29.4 36.8 27.8 38.8 27.8Z" fill="#66D095"></path><path d="M38.8 33.4C39.9046 33.4 40.8 32.5046 40.8 31.4C40.8 30.2955 39.9046 29.4 38.8 29.4C37.6954 29.4 36.8 30.2955 36.8 31.4C36.8 32.5046 37.6954 33.4 38.8 33.4Z" fill="white"></path><path d="M11 17.7V20.3H13.6C12.2 20.3 11 19.1 11 17.7Z" fill="#00B14F"></path></svg>